<svg xmlns="http://www.w3.org/2000/svg" viewBox="0 0 900 675" role="img" aria-labelledby="title desc">
  <title id="title">Method placeholder</title>
  <desc id="desc">A three-stage method diagram placeholder.</desc>
  <rect width="900" height="675" fill="#f7f9fb"/>
  <rect x="90" y="124" width="190" height="150" rx="16" fill="#ffffff" stroke="#d8dee8" stroke-width="4"/>
  <rect x="355" y="124" width="190" height="150" rx="16" fill="#ffffff" stroke="#d8dee8" stroke-width="4"/>
  <rect x="620" y="124" width="190" height="150" rx="16" fill="#ffffff" stroke="#d8dee8" stroke-width="4"/>
  <path d="M280 199 H355" stroke="#176b87" stroke-width="10" stroke-linecap="round"/>
  <path d="M545 199 H620" stroke="#176b87" stroke-width="10" stroke-linecap="round"/>
  <rect x="128" y="174" width="114" height="18" rx="9" fill="#25313f"/>
  <rect x="128" y="212" width="86" height="18" rx="9" fill="#9aa6b2"/>
  <circle cx="450" cy="199" r="42" fill="#176b87"/>
  <path d="M429 199 L445 215 L474 181" fill="none" stroke="#ffffff" stroke-width="12" stroke-linecap="round" stroke-linejoin="round"/>
  <rect x="656" y="168" width="118" height="18" rx="9" fill="#25313f"/>
  <rect x="656" y="206" width="84" height="18" rx="9" fill="#9aa6b2"/>
  <rect x="132" y="394" width="636" height="46" rx="23" fill="#25313f"/>
  <rect x="178" y="478" width="544" height="24" rx="12" fill="#9aa6b2"/>
  <rect x="244" y="526" width="412" height="24" rx="12" fill="#c3ccd6"/>
</svg>
