<svg xmlns="http://www.w3.org/2000/svg" viewBox="0 0 1280 720" role="img" aria-labelledby="title desc">
  <title id="title">Research project teaser placeholder</title>
  <desc id="desc">A clean research teaser diagram placeholder.</desc>
  <rect width="1280" height="720" fill="#f7f9fb"/>
  <rect x="92" y="92" width="1096" height="536" rx="18" fill="#ffffff" stroke="#d8dee8" stroke-width="4"/>
  <path d="M206 484 C342 340 448 376 562 264 C688 140 786 222 916 194 C1022 172 1086 222 1124 288" fill="none" stroke="#176b87" stroke-width="18" stroke-linecap="round"/>
  <path d="M206 512 C366 404 474 426 598 344 C728 258 842 308 956 284 C1046 266 1094 300 1124 344" fill="none" stroke="#d05f3f" stroke-width="12" stroke-linecap="round" opacity="0.82"/>
  <circle cx="294" cy="406" r="34" fill="#176b87"/>
  <circle cx="562" cy="264" r="34" fill="#176b87"/>
  <circle cx="916" cy="194" r="34" fill="#176b87"/>
  <rect x="212" y="164" width="292" height="34" rx="17" fill="#25313f"/>
  <rect x="212" y="218" width="512" height="22" rx="11" fill="#9aa6b2"/>
  <rect x="212" y="254" width="424" height="22" rx="11" fill="#c3ccd6"/>
  <rect x="812" y="460" width="228" height="34" rx="17" fill="#25313f"/>
  <rect x="812" y="516" width="300" height="22" rx="11" fill="#9aa6b2"/>
</svg>
